<svg xmlns="http://www.w3.org/2000/svg" width="32" height="32" fill="#0A66C2" viewBox="0 0 24 24">
  <path d="M20.447 20.452h-3.554v-5.569c0-1.327-.024-3.037-1.852-3.037-1.853 0-2.136 1.447-2.136 2.944v5.662H9.351V9h3.414v1.561h.049c.477-.9 1.637-1.852 3.369-1.852 3.6 0 4.266 2.37 4.266 5.456v6.287zM5.337 7.433a2.07 2.07 0 1 1 0-4.139 2.07 2.07 0 0 1 0 4.139zm1.777 13.019H3.56V9h3.554v11.452zM22.225 0H1.771C.792 0 0 .774 0 1.729v20.542C0 23.226.792 24 1.771 24h20.451C23.2 24 24 23.226 24 22.271V1.729C24 .774 23.2 0 22.225 0z"></path>
</svg>
