<svg xmlns="http://www.w3.org/2000/svg" width="32" height="32" fill="#25D366" viewBox="0 0 24 24">
  <path d="M12.04 2C6.5 2 2 6.49 2 11.99c0 2.1.58 4.05 1.68 5.77L2 22l4.37-1.64c1.63.9 3.47 1.38 5.38 1.38h.01c5.54 0 10.04-4.49 10.04-9.99C21.8 6.5 17.3 2 12.04 2zm0 18c-1.69 0-3.33-.45-4.77-1.31l-.34-.2-2.6.97.93-2.53-.22-.36a8.02 8.02 0 0 1-1.2-4.26c0-4.43 3.61-8.03 8.03-8.03 2.15 0 4.16.84 5.67 2.36a7.94 7.94 0 0 1 2.36 5.67c0 4.43-3.6 8.03-8.03 8.03zm4.58-5.99c-.25-.13-1.47-.72-1.7-.81-.23-.09-.4-.13-.56.13-.16.25-.64.81-.78.98-.14.16-.29.19-.54.06-.25-.13-1.05-.39-2-1.25-.74-.66-1.24-1.47-1.39-1.72-.15-.25-.02-.39.11-.52.11-.11.25-.29.37-.44.12-.15.16-.25.24-.41.08-.16.04-.31-.02-.44-.06-.13-.56-1.35-.77-1.85-.2-.48-.41-.42-.56-.43l-.48-.01c-.16 0-.43.06-.66.31-.23.25-.87.85-.87 2.07 0 1.22.89 2.4 1.02 2.56.12.16 1.75 2.68 4.25 3.75.59.25 1.05.4 1.41.51.59.19 1.12.16 1.55.1.47-.07 1.47-.6 1.68-1.19.21-.59.21-1.1.15-1.19-.06-.09-.23-.15-.48-.28z"></path>
</svg>
